:SAMPLES-PER-SECOND 30
:FULLY-SPECIFIED
:DEGREES
476
root  -2.35276 40.9352 1.35507 179.546 -86.9959 178.526
RightUpLeg  5.01167 -2.39373 -2.88351
RightLeg  -1.49448 -15.7888 0.503217
RightFoot  -0.0469364 -0.432912 4.37163
RightToes  -3.13006e-008 1.75238e-005 3.56266e-009
Spine  -9.27018 -1.10564 -1.62588
Spine1  15.8998 -1.98492 2.85967
HEad  2.0601 -8.02548 15.6579
LeftShoulder1  3.20434 -6.84937 -24.7758
LeftArm  -29.7904 -28.3034 -50.2884
LeftForeArm  52.6682 -75.6838 -41.3145
LeftHand  -0.0620844 -3.6898 1.05333
RightShoulder  3.3203 7.67157 23.549
RightArm  -19.9412 29.6929 36.8815
RightForeArm  88.4377 80.1585 79.0913
RightHand  0.470576 4.82013 5.02676
LeftUpLeg  4.62987 1.39065 1.30526
LeftLeg  -1.03966 15.7819 -1.19248
LeftFoot  -1.08224 0.217682 -2.34976
LeftToes  4.76866e-008 1.46233e-008 1.30548e-009
477
root  -2.35651 40.9375 1.27569 -179.981 -86.9688 178.118
RightUpLeg  4.90756 -2.37485 -2.78967
RightLeg  -1.40119 -15.8085 0.516109
RightFoot  -0.105111 -0.418533 4.24452
RightToes  -3.13006e-008 1.75238e-005 3.56266e-009
Spine  -9.80253 -1.23205 -0.949909
Spine1  16.1996 -1.75112 1.51353
HEad  3.50539 -7.69908 14.3446
LeftShoulder1  3.20644 -6.89322 -24.6598
LeftArm  -28.8816 -27.0432 -49.5668
LeftForeArm  53.4448 -75.4416 -40.0634
LeftHand  0.088249 -4.44609 -0.759019
RightShoulder  3.16091 7.5591 22.3373
RightArm  -15.871 31.9421 36.1217
RightForeArm  90.2444 80.2266 80.0613
RightHand  0.422121 5.24199 4.28855
LeftUpLeg  4.59682 1.2988 1.33365
LeftLeg  -1.09705 15.8818 -1.08109
LeftFoot  -1.01426 0.228295 -2.45944
LeftToes  4.76866e-008 1.46233e-008 1.30548e-009
478
root  -2.38334 40.9392 1.18574 179.254 -87.1497 178.832
RightUpLeg  5.12705 -2.37063 -2.64647
RightLeg  -1.57674 -15.9934 0.660283
RightFoot  -0.145584 -0.409242 4.16235
RightToes  -3.13006e-008 1.75238e-005 3.56266e-009
Spine  -10.5084 -1.32074 -0.297999
Spine1  16.9677 -1.46272 0.102096
HEad  5.23298 -8.12906 14.0156
LeftShoulder1  3.14519 -6.72804 -24.5548
LeftArm  -26.6946 -25.8327 -49.9115
LeftForeArm  54.739 -76.2487 -43.7072
LeftHand  0.19129 -4.79592 -1.88614
RightShoulder  2.99641 7.27324 21.525
RightArm  -13.1213 33.177 36.14
RightForeArm  94.6065 80.308 85.0692
RightHand  0.337174 5.32959 3.33458
LeftUpLeg  4.70711 1.39594 1.53506
LeftLeg  -1.14011 15.5747 -1.06471
LeftFoot  -0.998881 0.239515 -2.58142
LeftToes  4.76866e-008 1.46233e-008 1.30548e-009
479
root  -2.40909 40.9391 1.09361 179.408 -87.46 178.52
RightUpLeg  5.44144 -2.37241 -2.51919
RightLeg  -1.70017 -16.2895 0.735168
RightFoot  -0.204496 -0.387744 3.96014
RightToes  -3.13006e-008 1.75238e-005 3.56266e-009
Spine  -11.1126 -1.38157 -0.363251
Spine1  17.8242 -1.33834 -0.422828
HEad  7.14065 -8.3686 13.7819
LeftShoulder1  3.08791 -6.46685 -24.7904
LeftArm  -24.2357 -25.7468 -50.4687
LeftForeArm  56.8829 -76.9768 -47.453
LeftHand  0.151722 -4.77 -1.43208
RightShoulder  2.95774 7.26066 21.1733
RightArm  -11.9299 33.1347 36.4684
RightForeArm  100.133 80.346 90.5506
RightHand  0.321389 5.8338 2.98649
LeftUpLeg  4.89662 1.49613 1.70026
LeftLeg  -1.15252 15.1633 -1.05521
LeftFoot  -0.952955 0.254388 -2.7364
LeftToes  4.76866e-008 1.46233e-008 1.30548e-009
480
root  -2.41669 40.9354 0.991548 178.78 -88.0005 178.9
RightUpLeg  5.74769 -2.37701 -2.34737
RightLeg  -1.56314 -16.7989 0.750153
RightFoot  -0.37623 -0.373204 3.85925
RightToes  -3.13006e-008 1.75238e-005 3.56266e-009
Spine  -11.5044 -1.36484 -1.12247
Spine1  18.6229 -1.36061 0.0112932
HEad  8.82938 -8.48009 12.9057
LeftShoulder1  3.27629 -6.83136 -25.5612
LeftArm  -22.8262 -25.9061 -51.0304
LeftForeArm  61.8808 -77.709 -50.905
LeftHand  0.227119 -5.40595 -2.12762
RightShoulder  2.93694 7.08153 21.4633
RightArm  -11.8548 32.2094 37.2665
RightForeArm  106.712 80.2696 97.1955
RightHand  0.371957 5.97867 3.45962
LeftUpLeg  5.02788 1.6212 1.92669
LeftLeg  -0.945093 14.4334 -0.965245
LeftFoot  -0.991069 0.269892 -2.91416
LeftToes  4.76866e-008 1.46233e-008 1.30548e-009
481
root  -2.42647 40.929 0.901309 178.905 -88.5743 178.519
RightUpLeg  6.00879 -2.45889 -2.25468
RightLeg  -1.30233 -17.2597 0.775994
RightFoot  -0.658699 -0.359013 3.78921
RightToes  -3.13006e-008 1.75238e-005 3.56266e-009
Spine  -11.7405 -1.43796 -1.88554
Spine1  19.3185 -1.5177 0.532198
HEad  9.90419 -8.39793 12.2682
LeftShoulder1  3.35214 -6.9824 -25.8377
LeftArm  -22.0892 -26.1349 -52.2101
LeftForeArm  66.5683 -78.3061 -54.2139
LeftHand  0.228885 -5.5577 -2.11302
RightShoulder  3.01159 7.03179 22.3527
RightArm  -12.1605 30.9197 38.0793
RightForeArm  112.435 80.0986 102.986
RightHand  0.357052 5.74986 3.39253
LeftUpLeg  5.19093 1.72529 2.10105
LeftLeg  -0.803445 13.7357 -0.898051
LeftFoot  -1.00927 0.278815 -3.01989
LeftToes  4.76866e-008 1.46233e-008 1.30548e-009
482
root  -2.43689 40.9255 0.811736 177.637 -88.9771 179.596
RightUpLeg  6.24403 -2.42749 -2.068
RightLeg  -1.21194 -17.7309 0.771295
RightFoot  -0.76441 -0.338023 3.59474
RightToes  -3.13006e-008 1.75238e-005 3.56266e-009
Spine  -11.8799 -1.5756 -2.95914
Spine1  19.7967 -1.92273 1.68482
HEad  10.394 -8.04068 11.7442
LeftShoulder1  3.39918 -7.07622 -26.0064
LeftArm  -22.0856 -26.1871 -52.8784
LeftForeArm  69.4222 -78.6203 -56.1331
LeftHand  0.136834 -5.69457 -1.10632
RightShoulder  3.20971 7.34507 23.4183
RightArm  -12.8658 29.5135 38.6139
RightForeArm  113.988 80.0436 104.423
RightHand  0.292178 5.88857 2.66828
LeftUpLeg  5.31794 1.88165 2.33646
LeftLeg  -0.693045 13.1372 -0.905031
LeftFoot  -1.02953 0.283226 -3.05981
LeftToes  4.76866e-008 1.46233e-008 1.30548e-009
483
root  -2.4518 40.924 0.765961 175.724 -89.1222 -178.573
RightUpLeg  6.38072 -2.47068 -2.01386
RightLeg  -1.20522 -17.835 0.857713
RightFoot  -0.841976 -0.335958 3.58147
RightToes  -3.13006e-008 1.75238e-005 3.56266e-009
Spine  -11.8538 -1.66473 -3.42396
Spine1  19.8342 -2.17598 2.28107
HEad  10.3423 -7.07251 11.0158
LeftShoulder1  3.3439 -6.97357 -25.7802
LeftArm  -22.8333 -26.2917 -53.4943
LeftForeArm  69.9592 -78.6732 -56.4557
LeftHand  0.156112 -5.67731 -1.31229
RightShoulder  3.37035 7.66279 24.0451
RightArm  -13.7331 27.9935 39.3244
RightForeArm  112.164 80.053 103.328
RightHand  0.26591 5.94422 2.41416
LeftUpLeg  5.37667 1.8699 2.40223
LeftLeg  -0.621354 12.9845 -0.78359
LeftFoot  -1.05117 0.292732 -3.18335
LeftToes  4.76866e-008 1.46233e-008 1.30548e-009
484
root  -2.47235 40.9241 0.740307 175.879 -89.0554 -178.681
RightUpLeg  6.37243 -2.43952 -1.96147
RightLeg  -1.24481 -17.8389 0.869486
RightFoot  -0.879298 -0.330395 3.50388
RightToes  -3.13006e-008 1.75238e-005 3.56266e-009
Spine  -11.8482 -1.7105 -3.40362
Spine1  19.7062 -2.2554 2.36412
HEad  10.0362 -6.13783 10.699
LeftShoulder1  3.17953 -6.63103 -25.2184
LeftArm  -23.7071 -26.3485 -53.7697
LeftForeArm  69.2936 -78.6027 -56.0011
LeftHand  0.0878072 -5.34608 -0.637282
RightShoulder  3.51478 7.89011 24.7462
RightArm  -14.5388 26.9271 39.8899
RightForeArm  108.797 80.2227 99.266
RightHand  0.126467 6.23002 0.925797
LeftUpLeg  5.35357 1.83273 2.40327
LeftLeg  -0.587818 13.0858 -0.710057
LeftFoot  -1.09205 0.298834 -3.25818
LeftToes  4.76866e-008 1.46233e-008 1.30548e-009
485
root  -2.49917 40.9247 0.730998 176.272 -88.7369 -179.009
RightUpLeg  6.37156 -2.39867 -1.94265
RightLeg  -1.3766 -17.5733 0.889934
RightFoot  -0.86491 -0.334433 3.57416
RightToes  -3.13006e-008 1.75238e-005 3.56266e-009
Spine  -11.9375 -1.5496 -3.50727
Spine1  19.6485 -2.23856 2.85453
HEad  9.13732 -5.29404 10.28
LeftShoulder1  3.1454 -6.55589 -25.1064
LeftArm  -24.4927 -26.4067 -53.2328
LeftForeArm  68.6876 -78.5478 -55.7222
LeftHand  0.0525662 -4.94106 -0.279513
RightShoulder  3.58384 7.98298 25.1139
RightArm  -15.3262 26.1804 40.1618
RightForeArm  104.467 80.3004 95.1747
RightHand  0.178148 5.63403 1.55962
LeftUpLeg  5.43963 1.84752 2.42249
LeftLeg  -0.729395 13.3777 -0.760194
LeftFoot  -1.09535 0.303777 -3.31916
LeftToes  4.76866e-008 1.46233e-008 1.30548e-009
486
root  -2.51919 40.9245 0.739667 176.423 -88.4196 -179.094
RightUpLeg  6.30681 -2.33708 -1.9191
RightLeg  -1.41177 -17.3562 0.852705
RightFoot  -0.867499 -0.327953 3.47881
RightToes  -3.13006e-008 1.75238e-005 3.56266e-009
Spine  -11.8237 -1.38822 -3.1447
Spine1  19.294 -2.06726 2.7283
HEad  7.75498 -4.45191 10.3532
LeftShoulder1  3.11564 -6.54244 -24.84
LeftArm  -23.7985 -26.4437 -51.7889
LeftForeArm  68.7938 -78.5444 -55.6049
LeftHand  -0.0846447 -4.33984 1.23963
RightShoulder  3.61458 8.04388 25.2191
RightArm  -15.8685 26.0374 41.2396
RightForeArm  97.0363 80.3411 87.255
RightHand  0.112901 6.40238 0.762535
LeftUpLeg  5.43316 1.8485 2.40804
LeftLeg  -0.708821 13.692 -0.761598
LeftFoot  -1.1446 0.307189 -3.36044
LeftToes  4.76866e-008 1.46233e-008 1.30548e-009
